<?xml version="1.0" standalone="no"?>
<!DOCTYPE svg PUBLIC "-//W3C//DTD SVG 20010904//EN"
 "http://www.w3.org/TR/2001/REC-SVG-20010904/DTD/svg10.dtd">
<svg version="1.0" xmlns="http://www.w3.org/2000/svg"
 width="213.000000pt" height="213.000000pt" viewBox="0 0 213.000000 213.000000"
 preserveAspectRatio="xMidYMid meet">
<metadata>
Created by potrace 1.11, written by Peter Selinger 2001-2013
</metadata>
<g transform="translate(0.000000,213.000000) scale(0.100000,-0.100000)"
fill="#000000" stroke="none">
<path d="M920 2026 c-252 -54 -459 -252 -526 -501 -34 -130 -22 -309 30 -430
40 -90 40 -84 -7 -82 l-42 2 -2 -177 -2 -178 673 0 674 0 0 170 c-1 146 -3
172 -17 179 -9 5 -22 6 -28 4 -17 -6 -16 -4 6 43 68 141 86 320 47 469 -92
351 -456 577 -806 501z m281 -370 c284 -142 246 -550 -60 -631 -200 -52 -407
100 -417 306 -8 153 85 291 229 340 76 26 177 20 248 -15z"/>
<path d="M370 253 c0 -95 3 -173 8 -174 10 -1 1287 -1 1335 0 l37 1 0 173 0
172 -690 0 -690 0 0 -172z"/>
</g>
</svg>
